<?xml version="1.0" encoding="UTF-8"?>
<svg id="Layer_2" data-name="Layer 2" xmlns="http://www.w3.org/2000/svg" viewBox="0 0 199.66 199.66">
  <defs>
    <style>
      .cls-1 {
        font-size: 11px;
      }

      .cls-1, .cls-2 {
        font-family: Industry-Medium, Industry;
        font-weight: 500;
      }

      .cls-3 {
        letter-spacing: .1em;
      }

      .cls-4 {
        letter-spacing: .1em;
      }

      .cls-5 {
        stroke-width: 2.88px;
      }

      .cls-5, .cls-6 {
        stroke: #e5c6a4;
        stroke-linecap: round;
        stroke-linejoin: round;
      }

      .cls-5, .cls-6, .cls-7, .cls-8, .cls-9 {
        fill: none;
      }

      .cls-10 {
        letter-spacing: .04em;
      }

      .cls-2 {
        font-size: 8.76px;
      }

      .cls-2, .cls-11, .cls-12 {
        isolation: isolate;
      }

      .cls-13 {
        letter-spacing: .08em;
      }

      .cls-14 {
        letter-spacing: .13em;
      }

      .cls-6 {
        stroke-width: 2.6px;
      }

      .cls-15 {
        letter-spacing: .11em;
      }

      .cls-11 {
        font-family: BodoniSvtyTwoOSITCTT-Bold, 'Bodoni 72 Oldstyle';
        font-size: 37.34px;
        font-weight: 700;
      }

      .cls-16 {
        letter-spacing: .12em;
      }

      .cls-7 {
        stroke-width: 1.16px;
      }

      .cls-7, .cls-8, .cls-9 {
        stroke: #000;
        stroke-miterlimit: 10;
      }

      .cls-17 {
        letter-spacing: .12em;
      }

      .cls-18 {
        letter-spacing: .09em;
      }

      .cls-19 {
        letter-spacing: .09em;
      }

      .cls-12 {
        font-family: MinionPro-Regular, 'Minion Pro';
        font-size: 24.76px;
      }

      .cls-20 {
        letter-spacing: .09em;
      }

      .cls-21 {
        letter-spacing: .12em;
      }

      .cls-22 {
        stroke-width: 0px;
      }

      .cls-8 {
        stroke-width: 4.65px;
      }

      .cls-9 {
        stroke-width: .25px;
      }
    </style>
  </defs>
  <g id="Layer_1-2" data-name="Layer 1">
    <g>
      <g>
        <path class="cls-5" d="m36.67,157.66c.04-34.79,28.27-62.96,63.05-62.92,34.79.04,62.96,28.27,62.92,63.05"/>
        <path class="cls-5" d="m42.37,157.66c.03-31.64,25.71-57.27,57.35-57.23,31.64.03,57.27,25.71,57.23,57.35"/>
        <path class="cls-5" d="m48.06,157.67c.03-28.5,23.16-51.57,51.65-51.54,28.5.03,51.57,23.16,51.54,51.65"/>
        <path class="cls-5" d="m53.76,157.67c.03-25.35,20.6-45.88,45.95-45.86,25.35.03,45.88,20.6,45.86,45.95"/>
        <path class="cls-5" d="m59.45,157.68c.02-22.21,18.05-40.19,40.25-40.17,22.21.02,40.19,18.05,40.17,40.25"/>
        <path class="cls-5" d="m65.14,157.69c.02-19.06,15.49-34.5,34.56-34.48,19.06.02,34.5,15.49,34.48,34.55"/>
        <path class="cls-5" d="m70.84,157.69c.02-15.92,12.94-28.81,28.86-28.79,15.92.02,28.81,12.94,28.79,28.86"/>
        <path class="cls-5" d="m76.53,157.7c.01-12.78,10.38-23.12,23.16-23.11,12.77.01,23.12,10.38,23.11,23.16"/>
        <path class="cls-5" d="m82.22,157.7c.01-9.63,7.83-17.43,17.46-17.42,9.63.01,17.43,7.83,17.42,17.46"/>
        <path class="cls-6" d="m87.92,157.71c0-6.49,5.27-11.74,11.76-11.73s11.74,5.27,11.73,11.76"/>
      </g>
      <rect class="cls-8" x="2.32" y="2.32" width="195.02" height="195.02"/>
      <rect class="cls-7" x="11.03" y="11.03" width="177.59" height="177.59"/>
      <text class="cls-11" transform="translate(40.38 47.78)"><tspan x="0" y="0">RISING</tspan></text>
      <text class="cls-12" transform="translate(41.02 68.15) scale(1.1 1)"><tspan class="cls-21" x="0" y="0">C</tspan><tspan class="cls-4" x="19.36" y="0">O</tspan><tspan class="cls-15" x="40.35" y="0">FFEE</tspan></text>
      <path class="cls-22" d="m147.82,158.26h-12.24c1.61-.95,3.12-2.12,4.49-3.52,2.11.05,4.61-.75,6.89-2.22,2.03-1.31,3.66-2.98,4.59-4.72.97-1.82,1.06-3.51.27-4.75-.88-1.37-2.76-1.97-5.1-1.66.09-.59.17-1.17.22-1.75.06-.72-.17-1.41-.66-1.95-.5-.55-1.21-.86-1.95-.86h-38.03c-.74,0-1.45.31-1.95.86-.49.54-.73,1.23-.66,1.95.74,8.16,5.13,14.98,11.31,18.61h-20.13c1.43-1.19,2.16-3.09,2.17-5.7.01-4.49-.03-8.98.04-13.47.01-.69.33-1.62.83-2.02,2.78-2.21,4.48-5.09,5.55-8.4.39-1.19.68-2.42,1.19-3.55,1.45-3.21,3.2-6.16,6.78-7.49.45-.17,1.02-.76,1.03-1.16.01-.37-.61-.85-1.06-1.11-.88-.52-1.84-.89-2.75-1.36-2.6-1.35-4.9-1.38-7.02,1.04-1.23,1.41-2.8,2.53-4.21,3.78-.25-.29-.32-.33-.32-.37-.03-3.46-.01-6.93-.09-10.39-.07-3.34-2.45-5.94-5.62-6.21-1.02-.09-2.04-.03-3.07-.03-1.65,0-3.31,0-5.14,0,1.89-2.98,1.84-4.79.05-6.37-1.84-1.62-5.05-1.66-6.94-.1-1.89,1.56-1.97,3.37-.24,6.28-.17.08-.21.13-.26.13-2.38.02-4.77.01-7.15.06-3.03.06-5.5,1.93-6.04,4.78-.22,1.19-.82,1.7-1.78,2.19-3.95,2.02-7,4.92-7.19,9.6-.11,2.73.24,5.59,1.04,8.2,1.4,4.61,3.3,9.07,4.97,13.6,1.49,4.06,2.82,8.16,2.75,12.58-.04,2.44.72,4.31,2.14,5.5h-29.89v1.02c0,2.08,1.69,3.77,3.77,3.77h122.87c2.08,0,3.77-1.69,3.77-3.77v-1.02h-17.22Zm-85.73-26.36c-.3-.42-.54-.66-.67-.96-1.56-3.45-2.63-7.02-2.56-10.84.05-2.69.96-3.98,3.23-4.55v16.35Zm4.13-22.88c0-.13.11-.24.24-.24h1.21c.13,0,.24.11.24.24v39.7c0,.13-.11.24-.24.24h-1.21c-.13,0-.24-.11-.24-.24v-39.7Zm.85,42.37c.62,0,1.12.5,1.12,1.12s-.5,1.12-1.12,1.12-1.12-.5-1.12-1.12.5-1.12,1.12-1.12Zm50.17,4.03c-.37,0-.68-.3-.68-.68s.3-.68.68-.68.68.3.68.68-.31.68-.68.68Zm25.19-3.47c1.69-2.37,2.97-5.09,3.74-7.95,1.61-.37,2.87-.17,3.34.55.75,1.17-.62,3.83-3.86,5.91-1.06.68-2.17,1.19-3.22,1.49Zm-27.96.48c-.02.17-.11.32-.25.41-.23.15-.52.12-.71-.07-1.19-1.18-4.21-4.73-6.41-12.19-.05-.17-.02-.34.09-.49.11-.15.28-.23.46-.23h.5c.27,0,.5.19.55.45.45,2.25,1.89,7.89,5.61,11.66.12.12.18.29.16.46Z"/>
      <text class="cls-1" transform="translate(33.16 179.02) scale(1.1 1)"><tspan class="cls-16" x="0" y="0">E</tspan><tspan class="cls-17" x="7.89" y="0">S</tspan><tspan class="cls-10" x="16.06" y="0">T</tspan><tspan class="cls-14" x="22.76" y="0">ABLISHED 2023</tspan></text>
      <polygon class="cls-22" points="25.43 171.65 26.3 174.34 29.13 174.34 26.84 176 27.72 178.69 25.43 177.03 23.14 178.69 24.02 176 21.73 174.34 24.56 174.34 25.43 171.65"/>
      <polygon class="cls-22" points="174.43 171.65 175.3 174.34 178.13 174.34 175.84 176 176.72 178.69 174.43 177.03 172.14 178.69 173.02 176 170.73 174.34 173.56 174.34 174.43 171.65"/>
      <text class="cls-2" transform="translate(42.32 84.23) scale(1.13 1)"><tspan class="cls-3" x="0" y="0">Si</tspan><tspan class="cls-19" x="9.37" y="0">p</tspan><tspan class="cls-3" x="15.21" y="0">. U</tspan><tspan class="cls-20" x="27.78" y="0">n</tspan><tspan class="cls-3" x="33.56" y="0">wind. </tspan><tspan class="cls-13" x="61.77" y="0">R</tspan><tspan class="cls-3" x="68.23" y="0">epe</tspan><tspan class="cls-18" x="85.44" y="0">a</tspan><tspan class="cls-3" x="91.06" y="0">t.</tspan></text>
      <line class="cls-9" x1="42.64" y1="73.61" x2="152.64" y2="73.61"/>
      <g>
        <path class="cls-22" d="m127.13,110.99s5.24,2.41,2.92,6.6c-2.31,4.19-1.76,7.42-.7,8.57,0,0-4.66-2.95-1.33-8.68,2.64-4.53-.89-6.49-.89-6.49Z"/>
        <path class="cls-22" d="m125.02,117.09s-6.44,2.88-3.6,7.89c2.84,5.02,2.18,8.87.86,10.25,0,0,5.74-3.53,1.64-10.39-3.24-5.42,1.1-7.76,1.1-7.76Z"/>
      </g>
    </g>
  </g>
</svg>